<?xml version="1.0" encoding="utf-8"?>
<!-- Generator: Adobe Illustrator 27.1.1, SVG Export Plug-In . SVG Version: 6.00 Build 0)  -->
<svg version="1.1" id="Layer_1" xmlns="http://www.w3.org/2000/svg" xmlns:xlink="http://www.w3.org/1999/xlink" x="0px" y="0px"
	 viewBox="0 0 583.46 111.76" enable-background="new 0 0 583.46 111.76" xml:space="preserve">
<g>
	<g>
		<g>
			<g>
				<g>
					<g>
						<path fill="#252525" d="M90.55,1778.71c-1.04,0.69-2.25,1.05-3.49,1.05c-2.15,0-4.13-1.07-5.31-2.86l-11.87-18.02l-0.98-1.5
							l-0.26-0.39c-0.24-0.35-0.43-0.73-0.59-1.11c-0.47-1.15-0.58-2.42-0.33-3.66c0.24-1.16,0.78-2.21,1.57-3.05
							c0.34-0.37,0.73-0.7,1.16-0.98c0.31-0.2,0.63-0.37,0.96-0.52c1.19-0.52,2.51-0.67,3.81-0.4c0.43,0.09,0.85,0.22,1.24,0.4
							c0.82,0.34,1.54,0.85,2.13,1.5c0.25,0.26,0.46,0.53,0.66,0.83l3.87,5.88l1.98,3l7.26,11.03
							C94.29,1772.84,93.48,1776.79,90.55,1778.71z"/>
					</g>
				</g>
			</g>
			<g>
				<g>
					<g>
						<path fill="#252525" d="M42.94,1755.88c-0.16,0.38-0.36,0.76-0.59,1.11l-0.26,0.39l-0.98,1.5l-11.87,18.02
							c-1.18,1.79-3.17,2.86-5.31,2.86c-1.25,0-2.45-0.36-3.49-1.05c-2.93-1.92-3.74-5.87-1.82-8.8l7.26-11.03l1.98-3l3.87-5.88
							c0.2-0.3,0.42-0.57,0.66-0.83c0.6-0.65,1.32-1.16,2.13-1.5c0.4-0.18,0.81-0.31,1.24-0.4c1.3-0.27,2.63-0.12,3.82,0.4
							c0.33,0.15,0.65,0.32,0.96,0.52c0.43,0.28,0.81,0.61,1.15,0.98c0.79,0.84,1.34,1.89,1.58,3.05
							C43.52,1753.46,43.4,1754.73,42.94,1755.88z"/>
					</g>
				</g>
			</g>
		</g>
		<g>
			<g>
				<g>
					<path fill="#252525" d="M90.48,1668H20.51C9.2,1668,0,1677.19,0,1688.5v49.88c0,11.31,9.2,20.5,20.51,20.5h69.97
						c11.3,0,20.5-9.19,20.5-20.5v-49.88C110.98,1677.19,101.78,1668,90.48,1668z M98.27,1738.38c0,4.3-3.5,7.79-7.79,7.79H20.51
						c-4.3,0-7.79-3.49-7.79-7.79v-49.88c0-4.3,3.49-7.79,7.79-7.79h69.97c4.29,0,7.79,3.49,7.79,7.79V1738.38z"/>
				</g>
			</g>
		</g>
		<g>
			<g>
				<path fill="#252525" d="M73.65,1714.17c0,1.74-0.9,3.3-2.4,4.17l-23.7,13.68c-0.75,0.44-1.58,0.65-2.41,0.65
					c-0.83,0-1.65-0.21-2.41-0.65c-1.5-0.87-2.4-2.43-2.4-4.17v-27.36c0-1.74,0.9-3.3,2.4-4.17c1.51-0.87,3.31-0.87,4.82,0
					l23.7,13.68C72.75,1710.87,73.65,1712.43,73.65,1714.17z"/>
			</g>
		</g>
		<g>
			<path fill="#252525" d="M153.16,1747.29c-3.62-1.55-6.48-3.77-8.59-6.68c-2.1-2.91-3.19-6.34-3.25-10.3h13.92
				c0.19,2.72,1.13,4.89,2.83,6.5c1.7,1.61,4.04,2.41,7.01,2.41c3.03,0,5.41-0.74,7.15-2.23c1.73-1.49,2.6-3.46,2.6-5.94
				c0-1.92-0.59-3.5-1.76-4.73c-1.18-1.24-2.65-2.21-4.41-2.92c-1.76-0.71-4.19-1.5-7.29-2.37c-4.21-1.24-7.63-2.46-10.26-3.67
				c-2.63-1.21-4.89-3.03-6.78-5.48c-1.89-2.44-2.83-5.71-2.83-9.79c0-3.84,0.96-7.18,2.88-10.03c1.92-2.85,4.61-5.03,8.08-6.54
				c3.47-1.52,7.43-2.27,11.88-2.27c6.68,0,12.11,1.62,16.29,4.87c4.18,3.25,6.48,7.78,6.92,13.6h-14.3
				c-0.12-2.41-1.07-4.35-2.83-5.8c-1.76-1.45-4.1-2.18-7.01-2.18c-2.54,0-4.56,0.67-6.08,2c-1.52,1.33-2.27,3.3-2.27,5.89
				c0,1.73,0.57,3.17,1.72,4.32c1.14,1.15,2.57,2.07,4.27,2.79c1.7,0.71,4.1,1.53,7.19,2.46c4.21,1.24,7.64,2.48,10.3,3.71
				c2.66,1.24,4.95,3.09,6.87,5.57c1.92,2.48,2.88,5.72,2.88,9.75c0,3.47-0.9,6.68-2.69,9.65c-1.8,2.97-4.43,5.34-7.89,7.1
				c-3.47,1.76-7.58,2.65-12.35,2.65C160.84,1749.61,156.78,1748.84,153.16,1747.29z"/>
			<path fill="#252525" d="M246.96,1726.87h-37.6c0.25,3.78,1.52,6.75,3.81,8.91c2.29,2.17,5.14,3.25,8.54,3.25
				c4.83,0,8.26-2.07,10.3-6.22h14.02c-1.49,4.95-4.33,9.02-8.54,12.21c-4.21,3.19-9.38,4.78-15.5,4.78c-4.95,0-9.39-1.1-13.32-3.3
				c-3.93-2.2-6.99-5.31-9.19-9.33c-2.2-4.02-3.3-8.66-3.3-13.92c0-5.32,1.08-9.99,3.25-14.02c2.17-4.02,5.2-7.12,9.1-9.28
				c3.9-2.17,8.38-3.25,13.46-3.25c4.89,0,9.27,1.05,13.14,3.16c3.87,2.1,6.87,5.08,9,8.91c2.13,3.84,3.2,8.26,3.2,13.27
				C247.33,1723.77,247.21,1725.38,246.96,1726.87z M233.87,1718.98c-0.06-3.59-1.25-6.42-3.57-8.49c-2.32-2.07-5.21-3.11-8.68-3.11
				c-3.28,0-6.03,1.04-8.26,3.11c-2.23,2.07-3.56,4.91-3.99,8.49H233.87z"/>
			<path fill="#252525" d="M304.23,1726.87h-37.6c0.25,3.78,1.52,6.75,3.81,8.91c2.29,2.17,5.14,3.25,8.54,3.25
				c4.83,0,8.26-2.07,10.3-6.22h14.02c-1.49,4.95-4.33,9.02-8.54,12.21c-4.21,3.19-9.38,4.78-15.5,4.78c-4.95,0-9.39-1.1-13.32-3.3
				c-3.93-2.2-6.99-5.31-9.19-9.33c-2.2-4.02-3.3-8.66-3.3-13.92c0-5.32,1.08-9.99,3.25-14.02c2.17-4.02,5.2-7.12,9.1-9.28
				c3.9-2.17,8.38-3.25,13.46-3.25c4.89,0,9.27,1.05,13.14,3.16c3.87,2.1,6.87,5.08,9,8.91c2.13,3.84,3.2,8.26,3.2,13.27
				C304.6,1723.77,304.48,1725.38,304.23,1726.87z M291.14,1718.98c-0.06-3.59-1.25-6.42-3.57-8.49c-2.32-2.07-5.21-3.11-8.68-3.11
				c-3.28,0-6.03,1.04-8.26,3.11c-2.23,2.07-3.56,4.91-3.99,8.49H291.14z"/>
			<path fill="#252525" d="M333.61,1699.39c2.69-1.73,5.77-2.6,9.24-2.6v13.65h-3.43c-4.08,0-7.16,0.96-9.24,2.88
				c-2.07,1.92-3.11,5.26-3.11,10.03v25.62h-13v-51.43h13v9.1C328.74,1703.54,330.92,1701.12,333.61,1699.39z"/>
			<path fill="#252525" d="M371.11,1699.39c2.69-1.73,5.77-2.6,9.24-2.6v13.65h-3.43c-4.08,0-7.16,0.96-9.24,2.88
				c-2.07,1.92-3.11,5.26-3.11,10.03v25.62h-13v-51.43h13v9.1C366.24,1703.54,368.42,1701.12,371.11,1699.39z"/>
			<path fill="#252525" d="M433.86,1713.96c-1.64,3.03-4.21,5.48-7.7,7.33c-3.5,1.86-7.91,2.79-13.23,2.79h-10.86v24.88h-13v-64.79
				h23.86c5.01,0,9.28,0.87,12.81,2.6c3.53,1.73,6.17,4.12,7.94,7.15c1.76,3.03,2.65,6.47,2.65,10.3
				C436.32,1707.68,435.5,1710.93,433.86,1713.96z M420.31,1711.27c1.76-1.73,2.65-4.08,2.65-7.05c0-3.09-0.87-5.49-2.6-7.19
				c-1.73-1.7-4.39-2.55-7.98-2.55h-10.3v19.4h10.3C415.9,1713.87,418.55,1713,420.31,1711.27z"/>
			<path fill="#252525" d="M458.51,1680.27v68.69h-13v-68.69H458.51z"/>
			<path fill="#252525" d="M471.09,1709.23c2.07-4.02,4.89-7.12,8.45-9.28c3.56-2.17,7.53-3.25,11.93-3.25
				c3.84,0,7.19,0.77,10.07,2.32c2.88,1.55,5.18,3.5,6.92,5.85v-7.33h13.09v51.43h-13.09v-7.52c-1.67,2.41-3.98,4.41-6.92,5.99
				c-2.94,1.58-6.33,2.37-10.16,2.37c-4.33,0-8.28-1.11-11.84-3.34c-3.56-2.23-6.37-5.37-8.45-9.42c-2.07-4.05-3.11-8.71-3.11-13.97
				C467.98,1717.86,469.01,1713.25,471.09,1709.23z M506.59,1715.12c-1.24-2.26-2.91-3.99-5.01-5.2c-2.1-1.21-4.36-1.81-6.78-1.81
				c-2.41,0-4.64,0.59-6.68,1.76c-2.04,1.18-3.7,2.89-4.97,5.15c-1.27,2.26-1.9,4.94-1.9,8.03c0,3.1,0.63,5.8,1.9,8.12
				c1.27,2.32,2.94,4.1,5.01,5.34c2.07,1.24,4.28,1.86,6.64,1.86c2.41,0,4.67-0.6,6.78-1.81c2.1-1.21,3.77-2.94,5.01-5.2
				c1.24-2.26,1.86-4.97,1.86-8.12C508.45,1720.09,507.83,1717.38,506.59,1715.12z"/>
			<path fill="#252525" d="M542.89,1697.53l13.27,35.92l13.46-35.92h13.83l-31.84,75.75h-13.83l11.14-25.62l-20.61-50.13H542.89z"/>
		</g>
	</g>
</g>
<g>
	<g>
		<g>
			<g>
				<g>
					<path fill="#FFFFFF" d="M90.55,959.71c-1.04,0.69-2.25,1.05-3.49,1.05c-2.15,0-4.13-1.07-5.31-2.86l-11.87-18.02l-0.98-1.5
						l-0.26-0.39c-0.24-0.35-0.43-0.73-0.59-1.11c-0.47-1.15-0.58-2.42-0.33-3.66c0.24-1.16,0.78-2.21,1.57-3.05
						c0.34-0.37,0.73-0.7,1.16-0.98c0.31-0.2,0.63-0.37,0.96-0.52c1.19-0.52,2.51-0.67,3.81-0.4c0.43,0.09,0.85,0.22,1.24,0.4
						c0.82,0.34,1.54,0.85,2.13,1.5c0.25,0.26,0.46,0.53,0.66,0.83l3.87,5.88l1.98,3l7.26,11.03
						C94.29,953.84,93.48,957.79,90.55,959.71z"/>
				</g>
			</g>
		</g>
		<g>
			<g>
				<g>
					<path fill="#FFFFFF" d="M42.94,936.88c-0.16,0.38-0.36,0.76-0.59,1.11l-0.26,0.39l-0.98,1.5L29.24,957.9
						c-1.18,1.79-3.17,2.86-5.31,2.86c-1.25,0-2.45-0.36-3.49-1.05c-2.93-1.92-3.74-5.87-1.82-8.8l7.26-11.03l1.98-3l3.87-5.88
						c0.2-0.3,0.42-0.57,0.66-0.83c0.6-0.65,1.32-1.16,2.13-1.5c0.4-0.18,0.81-0.31,1.24-0.4c1.3-0.27,2.63-0.12,3.82,0.4
						c0.33,0.15,0.65,0.32,0.96,0.52c0.43,0.28,0.81,0.61,1.15,0.98c0.79,0.84,1.34,1.89,1.58,3.05
						C43.52,934.46,43.4,935.73,42.94,936.88z"/>
				</g>
			</g>
		</g>
	</g>
	<g>
		<g>
			<g>
				<path fill="#FFFFFF" d="M90.48,849H20.51C9.2,849,0,858.19,0,869.5v49.88c0,11.31,9.2,20.5,20.51,20.5h69.97
					c11.3,0,20.5-9.19,20.5-20.5V869.5C110.98,858.19,101.78,849,90.48,849z M98.27,919.38c0,4.3-3.5,7.79-7.79,7.79H20.51
					c-4.3,0-7.79-3.49-7.79-7.79V869.5c0-4.3,3.49-7.79,7.79-7.79h69.97c4.29,0,7.79,3.49,7.79,7.79V919.38z"/>
			</g>
		</g>
	</g>
	<g>
		<g>
			<path fill="#FFFFFF" d="M73.65,895.17c0,1.74-0.9,3.3-2.4,4.17l-23.7,13.68c-0.75,0.44-1.58,0.65-2.41,0.65
				c-0.83,0-1.65-0.21-2.41-0.65c-1.5-0.87-2.4-2.43-2.4-4.17v-27.36c0-1.74,0.9-3.3,2.4-4.17c1.51-0.87,3.31-0.87,4.82,0L71.25,891
				C72.75,891.87,73.65,893.43,73.65,895.17z"/>
		</g>
	</g>
	<g>
		<path fill="#FFFFFF" d="M153.16,928.29c-3.62-1.55-6.48-3.77-8.59-6.68c-2.1-2.91-3.19-6.34-3.25-10.3h13.92
			c0.19,2.72,1.13,4.89,2.83,6.5c1.7,1.61,4.04,2.41,7.01,2.41c3.03,0,5.41-0.74,7.15-2.23c1.73-1.49,2.6-3.47,2.6-5.94
			c0-1.92-0.59-3.5-1.76-4.73c-1.18-1.24-2.65-2.21-4.41-2.92c-1.76-0.71-4.19-1.5-7.29-2.37c-4.21-1.24-7.63-2.46-10.26-3.67
			c-2.63-1.21-4.89-3.03-6.78-5.48c-1.89-2.44-2.83-5.71-2.83-9.79c0-3.84,0.96-7.18,2.88-10.03c1.92-2.85,4.61-5.03,8.08-6.54
			c3.47-1.52,7.43-2.27,11.88-2.27c6.68,0,12.11,1.62,16.29,4.87c4.18,3.25,6.48,7.78,6.92,13.6h-14.3
			c-0.12-2.41-1.07-4.35-2.83-5.8c-1.76-1.45-4.1-2.18-7.01-2.18c-2.54,0-4.56,0.67-6.08,2c-1.52,1.33-2.27,3.3-2.27,5.89
			c0,1.73,0.57,3.17,1.72,4.32c1.14,1.15,2.57,2.07,4.27,2.79c1.7,0.71,4.1,1.53,7.19,2.46c4.21,1.24,7.64,2.48,10.3,3.71
			c2.66,1.24,4.95,3.09,6.87,5.57c1.92,2.48,2.88,5.73,2.88,9.75c0,3.47-0.9,6.68-2.69,9.65c-1.8,2.97-4.43,5.34-7.89,7.1
			c-3.47,1.76-7.58,2.65-12.35,2.65C160.84,930.61,156.78,929.84,153.16,928.29z"/>
		<path fill="#FFFFFF" d="M246.96,907.87h-37.6c0.25,3.78,1.52,6.75,3.81,8.91c2.29,2.17,5.14,3.25,8.54,3.25
			c4.83,0,8.26-2.07,10.3-6.22h14.02c-1.49,4.95-4.33,9.02-8.54,12.21c-4.21,3.19-9.38,4.78-15.5,4.78c-4.95,0-9.39-1.1-13.32-3.3
			c-3.93-2.2-6.99-5.31-9.19-9.33c-2.2-4.02-3.3-8.66-3.3-13.92c0-5.32,1.08-9.99,3.25-14.02c2.17-4.02,5.2-7.12,9.1-9.28
			c3.9-2.17,8.38-3.25,13.46-3.25c4.89,0,9.27,1.05,13.14,3.16c3.87,2.1,6.87,5.07,9,8.91c2.13,3.84,3.2,8.26,3.2,13.27
			C247.33,904.77,247.21,906.38,246.96,907.87z M233.87,899.98c-0.06-3.59-1.25-6.42-3.57-8.49c-2.32-2.07-5.21-3.11-8.68-3.11
			c-3.28,0-6.03,1.04-8.26,3.11c-2.23,2.07-3.56,4.91-3.99,8.49H233.87z"/>
		<path fill="#FFFFFF" d="M304.23,907.87h-37.6c0.25,3.78,1.52,6.75,3.81,8.91c2.29,2.17,5.14,3.25,8.54,3.25
			c4.83,0,8.26-2.07,10.3-6.22h14.02c-1.49,4.95-4.33,9.02-8.54,12.21c-4.21,3.19-9.38,4.78-15.5,4.78c-4.95,0-9.39-1.1-13.32-3.3
			c-3.93-2.2-6.99-5.31-9.19-9.33c-2.2-4.02-3.3-8.66-3.3-13.92c0-5.32,1.08-9.99,3.25-14.02c2.17-4.02,5.2-7.12,9.1-9.28
			c3.9-2.17,8.38-3.25,13.46-3.25c4.89,0,9.27,1.05,13.14,3.16c3.87,2.1,6.87,5.07,9,8.91c2.13,3.84,3.2,8.26,3.2,13.27
			C304.6,904.77,304.48,906.38,304.23,907.87z M291.14,899.98c-0.06-3.59-1.25-6.42-3.57-8.49c-2.32-2.07-5.21-3.11-8.68-3.11
			c-3.28,0-6.03,1.04-8.26,3.11c-2.23,2.07-3.56,4.91-3.99,8.49H291.14z"/>
		<path fill="#FFFFFF" d="M333.61,880.39c2.69-1.73,5.77-2.6,9.24-2.6v13.65h-3.43c-4.08,0-7.16,0.96-9.24,2.88
			c-2.07,1.92-3.11,5.26-3.11,10.03v25.62h-13v-51.43h13v9.1C328.74,884.54,330.92,882.12,333.61,880.39z"/>
		<path fill="#FFFFFF" d="M371.11,880.39c2.69-1.73,5.77-2.6,9.24-2.6v13.65h-3.43c-4.08,0-7.16,0.96-9.24,2.88
			c-2.07,1.92-3.11,5.26-3.11,10.03v25.62h-13v-51.43h13v9.1C366.24,884.54,368.42,882.12,371.11,880.39z"/>
		<path fill="#FFFFFF" d="M433.86,894.96c-1.64,3.03-4.21,5.48-7.7,7.33c-3.5,1.86-7.91,2.79-13.23,2.79h-10.86v24.88h-13v-64.79
			h23.86c5.01,0,9.28,0.87,12.81,2.6c3.53,1.73,6.17,4.12,7.94,7.15c1.76,3.03,2.65,6.47,2.65,10.3
			C436.32,888.68,435.5,891.93,433.86,894.96z M420.31,892.27c1.76-1.73,2.65-4.08,2.65-7.05c0-3.09-0.87-5.49-2.6-7.19
			c-1.73-1.7-4.39-2.55-7.98-2.55h-10.3v19.4h10.3C415.9,894.87,418.55,894,420.31,892.27z"/>
		<path fill="#FFFFFF" d="M458.51,861.27v68.69h-13v-68.69H458.51z"/>
		<path fill="#FFFFFF" d="M471.09,890.23c2.07-4.02,4.89-7.12,8.45-9.28c3.56-2.17,7.53-3.25,11.93-3.25
			c3.84,0,7.19,0.77,10.07,2.32c2.88,1.55,5.18,3.5,6.92,5.85v-7.33h13.09v51.43h-13.09v-7.52c-1.67,2.41-3.98,4.41-6.92,5.99
			c-2.94,1.58-6.33,2.37-10.16,2.37c-4.33,0-8.28-1.11-11.84-3.34c-3.56-2.23-6.37-5.37-8.45-9.42c-2.07-4.05-3.11-8.71-3.11-13.97
			C467.98,898.86,469.01,894.25,471.09,890.23z M506.59,896.12c-1.24-2.26-2.91-3.99-5.01-5.2c-2.1-1.21-4.36-1.81-6.78-1.81
			c-2.41,0-4.64,0.59-6.68,1.76c-2.04,1.18-3.7,2.89-4.97,5.15c-1.27,2.26-1.9,4.94-1.9,8.03c0,3.1,0.63,5.8,1.9,8.12
			c1.27,2.32,2.94,4.1,5.01,5.34c2.07,1.24,4.28,1.86,6.64,1.86c2.41,0,4.67-0.6,6.78-1.81c2.1-1.21,3.77-2.94,5.01-5.2
			c1.24-2.26,1.86-4.97,1.86-8.12S507.83,898.38,506.59,896.12z"/>
		<path fill="#FFFFFF" d="M542.89,878.53l13.27,35.92l13.46-35.92h13.83l-31.84,75.75h-13.83l11.14-25.62l-20.61-50.13H542.89z"/>
	</g>
</g>
<g>
	<g>
		<g>
			<g>
				<g>
					<linearGradient id="SVGID_1_" gradientUnits="userSpaceOnUse" x1="80.4991" y1="79.1381" x2="80.4991" y2="111.76">
						<stop  offset="0" style="stop-color:#7B3DE5"/>
						<stop  offset="1" style="stop-color:#532BC2"/>
					</linearGradient>
					<path fill="url(#SVGID_1_)" d="M90.55,110.71c-1.04,0.69-2.25,1.05-3.49,1.05c-2.15,0-4.13-1.07-5.31-2.86L69.88,90.88
						l-0.98-1.5l-0.26-0.39c-0.24-0.35-0.43-0.73-0.59-1.11c-0.47-1.15-0.58-2.42-0.33-3.66c0.24-1.16,0.78-2.21,1.57-3.05
						c0.34-0.37,0.73-0.7,1.16-0.98c0.31-0.2,0.63-0.37,0.96-0.52c1.19-0.52,2.51-0.67,3.81-0.4c0.43,0.09,0.85,0.22,1.24,0.4
						c0.82,0.34,1.54,0.85,2.13,1.5c0.25,0.26,0.46,0.53,0.66,0.83l3.87,5.88l1.98,3l7.26,11.03
						C94.29,104.84,93.48,108.79,90.55,110.71z"/>
				</g>
			</g>
		</g>
		<g>
			<g>
				<g>
					
						<linearGradient id="SVGID_00000147216721309918270610000017508065790378282120_" gradientUnits="userSpaceOnUse" x1="30.4884" y1="79.1381" x2="30.4884" y2="111.76">
						<stop  offset="0" style="stop-color:#7B3DE5"/>
						<stop  offset="1" style="stop-color:#532BC2"/>
					</linearGradient>
					<path fill="url(#SVGID_00000147216721309918270610000017508065790378282120_)" d="M42.94,87.88c-0.16,0.38-0.36,0.76-0.59,1.11
						l-0.26,0.39l-0.98,1.5L29.24,108.9c-1.18,1.79-3.17,2.86-5.31,2.86c-1.25,0-2.45-0.36-3.49-1.05c-2.93-1.92-3.74-5.87-1.82-8.8
						l7.26-11.03l1.98-3L31.73,82c0.2-0.3,0.42-0.57,0.66-0.83c0.6-0.65,1.32-1.16,2.13-1.5c0.4-0.18,0.81-0.31,1.24-0.4
						c1.3-0.27,2.63-0.12,3.82,0.4c0.33,0.15,0.65,0.32,0.96,0.52c0.43,0.28,0.81,0.61,1.15,0.98c0.79,0.84,1.34,1.89,1.58,3.05
						C43.52,85.46,43.4,86.73,42.94,87.88z"/>
				</g>
			</g>
		</g>
	</g>
	<g>
		<g>
			<g>
				
					<linearGradient id="SVGID_00000077295157809722524660000009708497972821456003_" gradientUnits="userSpaceOnUse" x1="55.49" y1="0" x2="55.49" y2="90.88">
					<stop  offset="0" style="stop-color:#7B3DE5"/>
					<stop  offset="1" style="stop-color:#532BC2"/>
				</linearGradient>
				<path fill="url(#SVGID_00000077295157809722524660000009708497972821456003_)" d="M90.48,0H20.51C9.2,0,0,9.19,0,20.5v49.88
					c0,11.31,9.2,20.5,20.51,20.5h69.97c11.3,0,20.5-9.19,20.5-20.5V20.5C110.98,9.19,101.78,0,90.48,0z M98.27,70.38
					c0,4.3-3.5,7.79-7.79,7.79H20.51c-4.3,0-7.79-3.49-7.79-7.79V20.5c0-4.3,3.49-7.79,7.79-7.79h69.97c4.29,0,7.79,3.49,7.79,7.79
					V70.38z"/>
			</g>
		</g>
	</g>
	<g>
		<g>
			
				<linearGradient id="SVGID_00000176746057792139161110000011782745551450185905_" gradientUnits="userSpaceOnUse" x1="56.99" y1="27.6675" x2="56.99" y2="64.67">
				<stop  offset="0" style="stop-color:#7B3DE5"/>
				<stop  offset="1" style="stop-color:#532BC2"/>
			</linearGradient>
			<path fill="url(#SVGID_00000176746057792139161110000011782745551450185905_)" d="M73.65,46.17c0,1.74-0.9,3.3-2.4,4.17
				l-23.7,13.68c-0.75,0.44-1.58,0.65-2.41,0.65c-0.83,0-1.65-0.21-2.41-0.65c-1.5-0.87-2.4-2.43-2.4-4.17V32.49
				c0-1.74,0.9-3.3,2.4-4.17c1.51-0.87,3.31-0.87,4.82,0L71.25,42C72.75,42.87,73.65,44.43,73.65,46.17z"/>
		</g>
	</g>
	<g>
		<path fill="#FFFFFF" d="M153.16,79.29c-3.62-1.55-6.48-3.77-8.59-6.68c-2.1-2.91-3.19-6.34-3.25-10.3h13.92
			c0.19,2.72,1.13,4.89,2.83,6.5c1.7,1.61,4.04,2.41,7.01,2.41c3.03,0,5.41-0.74,7.15-2.23c1.73-1.49,2.6-3.47,2.6-5.94
			c0-1.92-0.59-3.5-1.76-4.73c-1.18-1.24-2.65-2.21-4.41-2.92c-1.76-0.71-4.19-1.5-7.29-2.37c-4.21-1.24-7.63-2.46-10.26-3.67
			c-2.63-1.21-4.89-3.03-6.78-5.48c-1.89-2.44-2.83-5.71-2.83-9.79c0-3.84,0.96-7.18,2.88-10.03c1.92-2.85,4.61-5.03,8.08-6.54
			c3.47-1.52,7.43-2.27,11.88-2.27c6.68,0,12.11,1.62,16.29,4.87c4.18,3.25,6.48,7.78,6.92,13.6h-14.3
			c-0.12-2.41-1.07-4.35-2.83-5.8c-1.76-1.45-4.1-2.18-7.01-2.18c-2.54,0-4.56,0.67-6.08,2c-1.52,1.33-2.27,3.3-2.27,5.89
			c0,1.73,0.57,3.17,1.72,4.32c1.14,1.15,2.57,2.07,4.27,2.79c1.7,0.71,4.1,1.53,7.19,2.46c4.21,1.24,7.64,2.48,10.3,3.71
			c2.66,1.24,4.95,3.09,6.87,5.57c1.92,2.48,2.88,5.72,2.88,9.75c0,3.47-0.9,6.68-2.69,9.65c-1.8,2.97-4.43,5.34-7.89,7.1
			c-3.47,1.76-7.58,2.65-12.35,2.65C160.84,81.61,156.78,80.84,153.16,79.29z"/>
		<path fill="#FFFFFF" d="M246.96,58.87h-37.6c0.25,3.78,1.52,6.75,3.81,8.91c2.29,2.17,5.14,3.25,8.54,3.25
			c4.83,0,8.26-2.07,10.3-6.22h14.02c-1.49,4.95-4.33,9.02-8.54,12.21c-4.21,3.19-9.38,4.78-15.5,4.78c-4.95,0-9.39-1.1-13.32-3.3
			c-3.93-2.2-6.99-5.31-9.19-9.33c-2.2-4.02-3.3-8.66-3.3-13.92c0-5.32,1.08-9.99,3.25-14.02c2.17-4.02,5.2-7.12,9.1-9.28
			c3.9-2.17,8.38-3.25,13.46-3.25c4.89,0,9.27,1.05,13.14,3.16c3.87,2.1,6.87,5.07,9,8.91c2.13,3.84,3.2,8.26,3.2,13.27
			C247.33,55.77,247.21,57.38,246.96,58.87z M233.87,50.98c-0.06-3.59-1.25-6.42-3.57-8.49c-2.32-2.07-5.21-3.11-8.68-3.11
			c-3.28,0-6.03,1.04-8.26,3.11c-2.23,2.07-3.56,4.91-3.99,8.49H233.87z"/>
		<path fill="#FFFFFF" d="M304.23,58.87h-37.6c0.25,3.78,1.52,6.75,3.81,8.91c2.29,2.17,5.14,3.25,8.54,3.25
			c4.83,0,8.26-2.07,10.3-6.22h14.02c-1.49,4.95-4.33,9.02-8.54,12.21c-4.21,3.19-9.38,4.78-15.5,4.78c-4.95,0-9.39-1.1-13.32-3.3
			c-3.93-2.2-6.99-5.31-9.19-9.33c-2.2-4.02-3.3-8.66-3.3-13.92c0-5.32,1.08-9.99,3.25-14.02c2.17-4.02,5.2-7.12,9.1-9.28
			c3.9-2.17,8.38-3.25,13.46-3.25c4.89,0,9.27,1.05,13.14,3.16c3.87,2.1,6.87,5.07,9,8.91c2.13,3.84,3.2,8.26,3.2,13.27
			C304.6,55.77,304.48,57.38,304.23,58.87z M291.14,50.98c-0.06-3.59-1.25-6.42-3.57-8.49c-2.32-2.07-5.21-3.11-8.68-3.11
			c-3.28,0-6.03,1.04-8.26,3.11c-2.23,2.07-3.56,4.91-3.99,8.49H291.14z"/>
		<path fill="#FFFFFF" d="M333.61,31.39c2.69-1.73,5.77-2.6,9.24-2.6v13.65h-3.43c-4.08,0-7.16,0.96-9.24,2.88
			c-2.07,1.92-3.11,5.26-3.11,10.03v25.62h-13V29.53h13v9.1C328.74,35.54,330.92,33.12,333.61,31.39z"/>
		<path fill="#FFFFFF" d="M371.11,31.39c2.69-1.73,5.77-2.6,9.24-2.6v13.65h-3.43c-4.08,0-7.16,0.96-9.24,2.88
			c-2.07,1.92-3.11,5.26-3.11,10.03v25.62h-13V29.53h13v9.1C366.24,35.54,368.42,33.12,371.11,31.39z"/>
		<path fill="#6F3AE3" d="M433.86,45.96c-1.64,3.03-4.21,5.48-7.7,7.33c-3.5,1.86-7.91,2.79-13.23,2.79h-10.86v24.88h-13V16.16
			h23.86c5.01,0,9.28,0.87,12.81,2.6c3.53,1.73,6.17,4.12,7.94,7.15c1.76,3.03,2.65,6.47,2.65,10.3
			C436.32,39.68,435.5,42.93,433.86,45.96z M420.31,43.27c1.76-1.73,2.65-4.08,2.65-7.05c0-3.09-0.87-5.49-2.6-7.19
			c-1.73-1.7-4.39-2.55-7.98-2.55h-10.3v19.4h10.3C415.9,45.87,418.55,45,420.31,43.27z"/>
		<path fill="#6F3AE3" d="M458.51,12.27v68.69h-13V12.27H458.51z"/>
		<path fill="#6F3AE3" d="M471.09,41.23c2.07-4.02,4.89-7.12,8.45-9.28c3.56-2.17,7.53-3.25,11.93-3.25c3.84,0,7.19,0.77,10.07,2.32
			c2.88,1.55,5.18,3.5,6.92,5.85v-7.33h13.09v51.43h-13.09v-7.52c-1.67,2.41-3.98,4.41-6.92,5.99c-2.94,1.58-6.33,2.37-10.16,2.37
			c-4.33,0-8.28-1.11-11.84-3.34c-3.56-2.23-6.37-5.37-8.45-9.42c-2.07-4.05-3.11-8.71-3.11-13.97
			C467.98,49.86,469.01,45.25,471.09,41.23z M506.59,47.12c-1.24-2.26-2.91-3.99-5.01-5.2c-2.1-1.21-4.36-1.81-6.78-1.81
			c-2.41,0-4.64,0.59-6.68,1.76c-2.04,1.18-3.7,2.89-4.97,5.15c-1.27,2.26-1.9,4.94-1.9,8.03c0,3.1,0.63,5.8,1.9,8.12
			c1.27,2.32,2.94,4.1,5.01,5.34c2.07,1.24,4.28,1.86,6.64,1.86c2.41,0,4.67-0.6,6.78-1.81c2.1-1.21,3.77-2.94,5.01-5.2
			c1.24-2.26,1.86-4.97,1.86-8.12S507.83,49.38,506.59,47.12z"/>
		<path fill="#6F3AE3" d="M542.89,29.53l13.27,35.92l13.46-35.92h13.83l-31.84,75.75h-13.83l11.14-25.62l-20.61-50.13H542.89z"/>
	</g>
</g>
<g>
	<g>
		<g>
			<g>
				<g>
					
						<linearGradient id="SVGID_00000155113506096657336230000004647743362267968136_" gradientUnits="userSpaceOnUse" x1="80.4991" y1="-754.8619" x2="80.4991" y2="-722.24">
						<stop  offset="0" style="stop-color:#7B3DE5"/>
						<stop  offset="1" style="stop-color:#532BC2"/>
					</linearGradient>
					<path fill="url(#SVGID_00000155113506096657336230000004647743362267968136_)" d="M90.55-723.29
						c-1.04,0.69-2.25,1.05-3.49,1.05c-2.15,0-4.13-1.07-5.31-2.86l-11.87-18.02l-0.98-1.5l-0.26-0.39
						c-0.24-0.35-0.43-0.73-0.59-1.11c-0.47-1.15-0.58-2.42-0.33-3.66c0.24-1.16,0.78-2.21,1.57-3.05c0.34-0.37,0.73-0.7,1.16-0.98
						c0.31-0.2,0.63-0.37,0.96-0.52c1.19-0.52,2.51-0.67,3.81-0.4c0.43,0.09,0.85,0.22,1.24,0.4c0.82,0.34,1.54,0.85,2.13,1.5
						c0.25,0.26,0.46,0.53,0.66,0.83l3.87,5.88l1.98,3l7.26,11.03C94.29-729.16,93.48-725.21,90.55-723.29z"/>
				</g>
			</g>
		</g>
		<g>
			<g>
				<g>
					
						<linearGradient id="SVGID_00000091715209110927345340000004492009873612245159_" gradientUnits="userSpaceOnUse" x1="30.4884" y1="-754.8619" x2="30.4884" y2="-722.24">
						<stop  offset="0" style="stop-color:#7B3DE5"/>
						<stop  offset="1" style="stop-color:#532BC2"/>
					</linearGradient>
					<path fill="url(#SVGID_00000091715209110927345340000004492009873612245159_)" d="M42.94-746.12
						c-0.16,0.38-0.36,0.76-0.59,1.11l-0.26,0.39l-0.98,1.5L29.24-725.1c-1.18,1.79-3.17,2.86-5.31,2.86
						c-1.25,0-2.45-0.36-3.49-1.05c-2.93-1.92-3.74-5.87-1.82-8.8l7.26-11.03l1.98-3l3.87-5.88c0.2-0.3,0.42-0.57,0.66-0.83
						c0.6-0.65,1.32-1.16,2.13-1.5c0.4-0.18,0.81-0.31,1.24-0.4c1.3-0.27,2.63-0.12,3.82,0.4c0.33,0.15,0.65,0.32,0.96,0.52
						c0.43,0.28,0.81,0.61,1.15,0.98c0.79,0.84,1.34,1.89,1.58,3.05C43.52-748.54,43.4-747.27,42.94-746.12z"/>
				</g>
			</g>
		</g>
	</g>
	<g>
		<g>
			<g>
				
					<linearGradient id="SVGID_00000001629750495887811290000007311787658638797237_" gradientUnits="userSpaceOnUse" x1="55.49" y1="-834" x2="55.49" y2="-743.12">
					<stop  offset="0" style="stop-color:#7B3DE5"/>
					<stop  offset="1" style="stop-color:#532BC2"/>
				</linearGradient>
				<path fill="url(#SVGID_00000001629750495887811290000007311787658638797237_)" d="M90.48-834H20.51C9.2-834,0-824.81,0-813.5
					v49.88c0,11.31,9.2,20.5,20.51,20.5h69.97c11.3,0,20.5-9.19,20.5-20.5v-49.88C110.98-824.81,101.78-834,90.48-834z
					 M98.27-763.62c0,4.3-3.5,7.79-7.79,7.79H20.51c-4.3,0-7.79-3.49-7.79-7.79v-49.88c0-4.3,3.49-7.79,7.79-7.79h69.97
					c4.29,0,7.79,3.49,7.79,7.79V-763.62z"/>
			</g>
		</g>
	</g>
	<g>
		<g>
			
				<linearGradient id="SVGID_00000011724152736199655450000001152259249277856153_" gradientUnits="userSpaceOnUse" x1="56.99" y1="-806.3325" x2="56.99" y2="-769.33">
				<stop  offset="0" style="stop-color:#7B3DE5"/>
				<stop  offset="1" style="stop-color:#532BC2"/>
			</linearGradient>
			<path fill="url(#SVGID_00000011724152736199655450000001152259249277856153_)" d="M73.65-787.83c0,1.74-0.9,3.3-2.4,4.17
				l-23.7,13.68c-0.75,0.44-1.58,0.65-2.41,0.65c-0.83,0-1.65-0.21-2.41-0.65c-1.5-0.87-2.4-2.43-2.4-4.17v-27.36
				c0-1.74,0.9-3.3,2.4-4.17c1.51-0.87,3.31-0.87,4.82,0L71.25-792C72.75-791.13,73.65-789.57,73.65-787.83z"/>
		</g>
	</g>
	<g>
		<path fill="#261452" d="M153.16-754.71c-3.62-1.55-6.48-3.77-8.59-6.68c-2.1-2.91-3.19-6.34-3.25-10.3h13.92
			c0.19,2.72,1.13,4.89,2.83,6.5c1.7,1.61,4.04,2.41,7.01,2.41c3.03,0,5.41-0.74,7.15-2.23c1.73-1.49,2.6-3.47,2.6-5.94
			c0-1.92-0.59-3.5-1.76-4.73c-1.18-1.24-2.65-2.21-4.41-2.92c-1.76-0.71-4.19-1.5-7.29-2.37c-4.21-1.24-7.63-2.46-10.26-3.67
			c-2.63-1.21-4.89-3.03-6.78-5.48c-1.89-2.44-2.83-5.71-2.83-9.79c0-3.84,0.96-7.18,2.88-10.03c1.92-2.85,4.61-5.03,8.08-6.54
			c3.47-1.52,7.43-2.27,11.88-2.27c6.68,0,12.11,1.62,16.29,4.87c4.18,3.25,6.48,7.78,6.92,13.6h-14.3
			c-0.12-2.41-1.07-4.35-2.83-5.8c-1.76-1.45-4.1-2.18-7.01-2.18c-2.54,0-4.56,0.67-6.08,2c-1.52,1.33-2.27,3.3-2.27,5.89
			c0,1.73,0.57,3.17,1.72,4.32c1.14,1.15,2.57,2.07,4.27,2.79c1.7,0.71,4.1,1.53,7.19,2.46c4.21,1.24,7.64,2.48,10.3,3.71
			c2.66,1.24,4.95,3.09,6.87,5.57c1.92,2.48,2.88,5.73,2.88,9.75c0,3.47-0.9,6.68-2.69,9.65c-1.8,2.97-4.43,5.34-7.89,7.1
			c-3.47,1.76-7.58,2.65-12.35,2.65C160.84-752.39,156.78-753.16,153.16-754.71z"/>
		<path fill="#261452" d="M246.96-775.13h-37.6c0.25,3.78,1.52,6.75,3.81,8.91c2.29,2.17,5.14,3.25,8.54,3.25
			c4.83,0,8.26-2.07,10.3-6.22h14.02c-1.49,4.95-4.33,9.02-8.54,12.21c-4.21,3.19-9.38,4.78-15.5,4.78c-4.95,0-9.39-1.1-13.32-3.3
			c-3.93-2.2-6.99-5.31-9.19-9.33c-2.2-4.02-3.3-8.66-3.3-13.92c0-5.32,1.08-9.99,3.25-14.02c2.17-4.02,5.2-7.12,9.1-9.28
			c3.9-2.17,8.38-3.25,13.46-3.25c4.89,0,9.27,1.05,13.14,3.16c3.87,2.1,6.87,5.07,9,8.91c2.13,3.84,3.2,8.26,3.2,13.27
			C247.33-778.23,247.21-776.62,246.96-775.13z M233.87-783.02c-0.06-3.59-1.25-6.42-3.57-8.49c-2.32-2.07-5.21-3.11-8.68-3.11
			c-3.28,0-6.03,1.04-8.26,3.11c-2.23,2.07-3.56,4.91-3.99,8.49H233.87z"/>
		<path fill="#261452" d="M304.23-775.13h-37.6c0.25,3.78,1.52,6.75,3.81,8.91c2.29,2.17,5.14,3.25,8.54,3.25
			c4.83,0,8.26-2.07,10.3-6.22h14.02c-1.49,4.95-4.33,9.02-8.54,12.21c-4.21,3.19-9.38,4.78-15.5,4.78c-4.95,0-9.39-1.1-13.32-3.3
			c-3.93-2.2-6.99-5.31-9.19-9.33c-2.2-4.02-3.3-8.66-3.3-13.92c0-5.32,1.08-9.99,3.25-14.02c2.17-4.02,5.2-7.12,9.1-9.28
			c3.9-2.17,8.38-3.25,13.46-3.25c4.89,0,9.27,1.05,13.14,3.16c3.87,2.1,6.87,5.07,9,8.91c2.13,3.84,3.2,8.26,3.2,13.27
			C304.6-778.23,304.48-776.62,304.23-775.13z M291.14-783.02c-0.06-3.59-1.25-6.42-3.57-8.49c-2.32-2.07-5.21-3.11-8.68-3.11
			c-3.28,0-6.03,1.04-8.26,3.11c-2.23,2.07-3.56,4.91-3.99,8.49H291.14z"/>
		<path fill="#261452" d="M333.61-802.61c2.69-1.73,5.77-2.6,9.24-2.6v13.65h-3.43c-4.08,0-7.16,0.96-9.24,2.88
			c-2.07,1.92-3.11,5.26-3.11,10.03v25.62h-13v-51.43h13v9.1C328.74-798.46,330.92-800.88,333.61-802.61z"/>
		<path fill="#261452" d="M371.11-802.61c2.69-1.73,5.77-2.6,9.24-2.6v13.65h-3.43c-4.08,0-7.16,0.96-9.24,2.88
			c-2.07,1.92-3.11,5.26-3.11,10.03v25.62h-13v-51.43h13v9.1C366.24-798.46,368.42-800.88,371.11-802.61z"/>
		<path fill="#6F3AE3" d="M433.86-788.04c-1.64,3.03-4.21,5.48-7.7,7.33c-3.5,1.86-7.91,2.79-13.23,2.79h-10.86v24.88h-13v-64.79
			h23.86c5.01,0,9.28,0.87,12.81,2.6c3.53,1.73,6.17,4.12,7.94,7.15c1.76,3.03,2.65,6.47,2.65,10.3
			C436.32-794.32,435.5-791.07,433.86-788.04z M420.31-790.73c1.76-1.73,2.65-4.08,2.65-7.05c0-3.09-0.87-5.49-2.6-7.19
			c-1.73-1.7-4.39-2.55-7.98-2.55h-10.3v19.4h10.3C415.9-788.13,418.55-789,420.31-790.73z"/>
		<path fill="#6F3AE3" d="M458.51-821.73v68.69h-13v-68.69H458.51z"/>
		<path fill="#6F3AE3" d="M471.09-792.77c2.07-4.02,4.89-7.12,8.45-9.28c3.56-2.17,7.53-3.25,11.93-3.25
			c3.84,0,7.19,0.77,10.07,2.32c2.88,1.55,5.18,3.5,6.92,5.85v-7.33h13.09v51.43h-13.09v-7.52c-1.67,2.41-3.98,4.41-6.92,5.99
			c-2.94,1.58-6.33,2.37-10.16,2.37c-4.33,0-8.28-1.11-11.84-3.34c-3.56-2.23-6.37-5.37-8.45-9.42c-2.07-4.05-3.11-8.71-3.11-13.97
			C467.98-784.14,469.01-788.75,471.09-792.77z M506.59-786.88c-1.24-2.26-2.91-3.99-5.01-5.2c-2.1-1.21-4.36-1.81-6.78-1.81
			c-2.41,0-4.64,0.59-6.68,1.76c-2.04,1.18-3.7,2.89-4.97,5.15c-1.27,2.26-1.9,4.94-1.9,8.03c0,3.1,0.63,5.8,1.9,8.12
			c1.27,2.32,2.94,4.1,5.01,5.34c2.07,1.24,4.28,1.86,6.64,1.86c2.41,0,4.67-0.6,6.78-1.81c2.1-1.21,3.77-2.94,5.01-5.2
			c1.24-2.26,1.86-4.97,1.86-8.12S507.83-784.62,506.59-786.88z"/>
		<path fill="#6F3AE3" d="M542.89-804.47l13.27,35.92l13.46-35.92h13.83l-31.84,75.75h-13.83l11.14-25.62l-20.61-50.13H542.89z"/>
	</g>
</g>
</svg>
